<?xml version="1.0" encoding="iso-8859-1"?>
<!-- Generator: Adobe Illustrator 19.0.0, SVG Export Plug-In . SVG Version: 6.00 Build 0)  -->
<svg version="1.1" id="Capa_1" xmlns="http://www.w3.org/2000/svg" xmlns:xlink="http://www.w3.org/1999/xlink" x="0px" y="0px"
	 viewBox="0 0 512 512" style="enable-background:new 0 0 512 512;" xml:space="preserve">
<path style="fill:#F4F5F7;" d="M247.759,445.553H66.447c-18.206,0-32.966-14.759-32.966-32.966V58.205h445.038v354.382
	c0,18.206-14.759,32.966-32.966,32.966h-115.38"/>
<path style="fill:#C8CED6;" d="M248.335,429.07H66.447c-9.104,0-16.483-7.379-16.483-16.483V74.688h412.072v337.899
	c0,9.104-7.379,16.483-16.483,16.483H324.651"/>
<g>
	<path style="fill:#37464F;" d="M445.553,454.31h-115.38v-17.513h115.38c13.349,0,24.209-10.86,24.209-24.209V66.962H42.237v345.626
		c0,13.349,10.86,24.209,24.209,24.209h181.312v17.513H66.447c-23.006,0-41.722-18.716-41.722-41.722V49.449h462.551v363.139
		C487.276,435.594,468.559,454.31,445.553,454.31z"/>
	<rect x="264.241" y="230.761" style="fill:#37464F;" width="49.449" height="17.513"/>
</g>
<path style="fill:#F4F5F7;" d="M41.722,8.757h428.555c18.206,0,32.966,14.759,32.966,32.966v16.483l0,0H8.757l0,0V41.722
	C8.757,23.516,23.516,8.757,41.722,8.757z"/>
<path style="fill:#C8CED6;" d="M25.239,41.722c0-9.104,7.379-16.483,16.483-16.483h428.555c9.104,0,16.483,7.379,16.483,16.483
	H25.239z"/>
<path style="fill:#37464F;" d="M512,66.962H0V41.722C0,18.716,18.716,0,41.722,0h428.555C493.284,0,512,18.716,512,41.722V66.962z
	 M17.513,49.449h476.974v-7.726c0-13.349-10.86-24.209-24.209-24.209H41.722c-13.349,0-24.209,10.86-24.209,24.209V49.449z"/>
<g>
	<rect x="91.171" y="58.205" style="fill:#FFFFFF;" width="49.449" height="24.724"/>
	<rect x="371.38" y="58.205" style="fill:#FFFFFF;" width="49.449" height="24.724"/>
</g>
<g>
	<path style="fill:#37464F;" d="M149.376,91.686H82.414V49.449h66.962V91.686z M99.928,74.173h31.936v-7.211H99.928V74.173z"/>
	<path style="fill:#37464F;" d="M429.586,91.686h-66.962V49.449h66.962V91.686z M380.137,74.173h31.936v-7.211h-31.936V74.173z"/>
	<rect x="231.276" y="24.724" style="fill:#37464F;" width="49.449" height="17.513"/>
</g>
<polyline style="fill:#64DDF9;" points="247.759,363.139 66.447,363.139 66.447,107.654 445.553,107.654 445.553,363.139 
	330.173,363.139 "/>
<polyline style="fill:#3598DC;" points="248.5,346.656 82.93,346.656 82.93,124.137 429.07,124.137 429.07,346.656 323.745,346.656 
	"/>
<polygon style="fill:#37464F;" points="454.31,371.895 330.173,371.895 330.173,354.382 436.797,354.382 436.797,116.41 
	75.203,116.41 75.203,354.382 247.759,354.382 247.759,371.895 57.69,371.895 57.69,98.897 454.31,98.897 "/>
<path style="fill:#FFC81A;" d="M313.69,486.761V239.517l-24.724-41.207l-24.724,41.207v247.243c0,9.104,7.379,16.483,16.483,16.483
	h16.483C306.311,503.243,313.69,495.864,313.69,486.761z"/>
<polygon style="fill:#F0B702;" points="280.724,486.761 280.724,244.05 288.966,230.369 297.207,244.05 297.207,486.761 "/>
<path style="fill:#37464F;" d="M297.207,512h-16.483c-13.918,0-25.239-11.322-25.239-25.239V237.092l33.481-55.802l33.481,55.802
	v249.669C322.447,500.678,311.125,512,297.207,512z M272.998,241.942v244.818c0,4.261,3.466,7.726,7.726,7.726h16.483
	c4.261,0,7.726-3.466,7.726-7.726V241.942l-15.968-26.613L272.998,241.942z"/>
<path style="fill:#2B7FB9;" d="M297.722,177.706h-17.513c0-20.733,16.868-37.602,37.602-37.602h28.845v17.513h-28.845
	C306.734,157.618,297.722,166.63,297.722,177.706z"/>
<g>
	<rect x="330.173" y="395.59" style="fill:#B1B7C4;" width="123.622" height="17.513"/>
	<rect x="58.205" y="395.59" style="fill:#B1B7C4;" width="189.553" height="17.513"/>
</g>
<rect x="379.622" y="148.861" style="fill:#FF6EA6;" width="32.966" height="32.966"/>
<path style="fill:#37464F;" d="M421.344,190.583h-50.479v-50.479h50.479V190.583z M388.378,173.07h15.453v-15.453h-15.453V173.07z"
	/>
<rect x="379.622" y="223.034" style="fill:#E74B3C;" width="32.966" height="32.966"/>
<path style="fill:#37464F;" d="M421.344,264.757h-50.479v-50.479h50.479V264.757z M388.378,247.243h15.453v-15.453h-15.453V247.243z
	"/>
<rect x="379.622" y="297.207" style="fill:#B7FF45;" width="32.966" height="32.966"/>
<path style="fill:#37464F;" d="M421.344,338.93h-50.479v-50.479h50.479V338.93z M388.378,321.416h15.453v-15.453h-15.453V321.416z"
	/>
<path style="fill:#2B7FB9;" d="M247.759,338.93c-13.917,0-25.239-11.322-25.239-25.239V177.706c0-11.077-9.012-20.089-20.089-20.089
	s-20.089,9.012-20.089,20.089v115.38c0,20.733-16.868,37.602-37.602,37.602s-37.602-16.868-37.602-37.602V140.62h17.513v152.467
	c0,11.077,9.012,20.089,20.089,20.089s20.089-9.012,20.089-20.089v-115.38c0-20.733,16.868-37.602,37.602-37.602
	s37.602,16.868,37.602,37.602V313.69c0,4.261,3.466,7.726,7.726,7.726V338.93z"/>
<g>
	<rect x="280.724" y="395.59" style="fill:#37464F;" width="16.483" height="17.513"/>
	<rect x="264.241" y="436.797" style="fill:#37464F;" width="49.449" height="17.513"/>
	<rect x="280.724" y="354.382" style="fill:#37464F;" width="16.483" height="17.513"/>
</g>
<g>
</g>
<g>
</g>
<g>
</g>
<g>
</g>
<g>
</g>
<g>
</g>
<g>
</g>
<g>
</g>
<g>
</g>
<g>
</g>
<g>
</g>
<g>
</g>
<g>
</g>
<g>
</g>
<g>
</g>
</svg>
